<svg width="905" height="399" viewBox="0 0 905 399" fill="none" xmlns="http://www.w3.org/2000/svg">
<path fill-rule="evenodd" clip-rule="evenodd" d="M155 219.761C155 265.364 123.121 296.996 77.7748 296.996C31.8794 296.996 0 265.364 0 219.761C0 174.158 31.8794 141.998 77.7748 141.998C123.121 141.998 155 174.158 155 219.761ZM31.8119 245.378C27.4759 237.74 25 228.908 25 219.497C25 190.503 48.5051 166.998 77.5 166.998C106.495 166.998 130 190.503 130 219.497C130 232.606 125.196 244.592 117.252 253.792C109.058 263.69 97.2308 270.125 83.8257 271.62C81.7519 271.869 79.6409 271.997 77.5 271.997C72.6816 271.997 68.0148 271.348 63.5823 270.132C49.8813 266.508 38.4627 257.672 31.8119 245.378Z" fill="#140406"/>
<path d="M207.337 296.996H237.07C249.85 259.117 262.369 220.403 273.845 182.524H274.367C285.582 220.403 297.84 259.117 310.098 296.996H340.874L391.212 141.999H361.479C349.481 181.27 337.223 220.681 325.226 259.953H324.704C311.924 220.681 299.144 181.27 286.103 141.999H261.848C249.328 181.27 236.809 220.681 224.029 259.953H223.508L186.733 141.999H157L207.337 296.996Z" fill="#140406"/>
<path d="M490.27 296.996C523.253 296.996 531.71 286.282 531.71 286.282V263.383C531.71 263.383 514.429 272.837 498.463 272.837C483.337 272.837 474.52 261.913 474.52 234.423C474.52 211.295 474.52 189.126 474.52 165.998L531.787 165.998V141.998C518.471 141.998 487.836 141.998 474.52 141.998V96.998H449.614C449.614 111.52 449.614 127.745 449.614 141.998H402.5L393.212 165.998C402.336 165.998 440.49 165.998 449.614 165.998V243.567C449.614 259.972 449.614 296.996 490.27 296.996Z" fill="#140406"/>
<path opacity="0.3" fill-rule="evenodd" clip-rule="evenodd" d="M832.076 119.496C944.04 248.113 755.111 400.815 667.636 334.489C530.953 230.851 720.112 -9.12144 832.076 119.496ZM696.312 283.556C709.008 292.033 723.927 296.56 739.187 296.56L739.18 296.568C759.64 296.545 779.253 288.4 793.721 273.94C808.19 259.479 816.326 239.858 816.35 219.398C816.35 204.13 811.823 189.21 803.346 176.523C794.861 163.835 782.814 153.942 768.71 148.1C754.614 142.259 739.092 140.732 724.125 143.708C709.158 146.684 695.41 154.029 684.614 164.825C673.826 175.613 666.473 189.369 663.497 204.336C660.521 219.303 662.049 234.816 667.89 248.921C673.731 263.025 683.625 275.079 696.312 283.556Z" fill="url(#paint0_radial_56_141)"/>
<path fill-rule="evenodd" clip-rule="evenodd" d="M635.028 298.769C675.607 350.691 749.422 344.058 798.431 320.021V320.029C847.448 295.983 855.901 144.531 732.595 134.59C650.256 127.95 594.456 246.848 635.028 298.769ZM696.312 283.556C709.008 292.033 723.927 296.56 739.187 296.56L739.179 296.568C759.639 296.544 779.253 288.4 793.721 273.939C808.189 259.479 816.326 239.858 816.35 219.398C816.35 204.13 811.822 189.21 803.345 176.523C794.861 163.835 782.814 153.942 768.71 148.1C754.613 142.259 739.092 140.732 724.125 143.708C709.158 146.684 695.41 154.029 684.614 164.825C673.826 175.613 666.473 189.369 663.497 204.336C660.521 219.303 662.049 234.816 667.89 248.92C673.731 263.025 683.625 275.079 696.312 283.556Z" fill="url(#paint1_radial_56_141)"/>
<g opacity="0.9">
<path fill-rule="evenodd" clip-rule="evenodd" d="M643.9 114.169C584.807 188.276 584.981 267.544 643.9 281.522V281.514C682.708 288.301 695.492 306.956 707.355 324.266C716.991 338.327 726.019 351.501 747.894 356.706C810.453 373.438 876.155 327.8 876.511 255.79C876.511 241.155 870.971 230.111 852.497 213.343C801.427 166.986 815.682 144.743 830.526 121.58C839.836 107.053 849.377 92.1646 843.181 70.7399C827.106 15.1614 702.993 40.0617 643.9 114.169ZM696.313 283.556C709.008 292.032 723.928 296.56 739.188 296.56L739.18 296.568C759.64 296.544 779.253 288.399 793.721 273.939C808.19 259.478 816.326 239.857 816.35 219.397C816.35 204.129 811.823 189.21 803.346 176.522C794.861 163.835 782.815 153.941 768.71 148.1C754.614 142.259 739.093 140.731 724.126 143.707C709.159 146.683 695.41 154.028 684.614 164.824C673.826 175.612 666.473 189.368 663.497 204.335C660.521 219.302 662.049 234.816 667.89 248.92C673.731 263.024 683.625 275.079 696.313 283.556Z" fill="url(#paint2_radial_56_141)"/>
<path fill-rule="evenodd" clip-rule="evenodd" d="M643.9 114.169C584.807 188.276 584.981 267.544 643.9 281.522V281.514C682.708 288.301 695.492 306.956 707.355 324.266C716.991 338.327 726.019 351.501 747.894 356.706C810.453 373.438 876.155 327.8 876.511 255.79C876.511 241.155 870.971 230.111 852.497 213.343C801.427 166.986 815.682 144.743 830.526 121.58C839.836 107.053 849.377 92.1646 843.181 70.7399C827.106 15.1614 702.993 40.0617 643.9 114.169ZM696.313 283.556C709.008 292.032 723.928 296.56 739.188 296.56L739.18 296.568C759.64 296.544 779.253 288.399 793.721 273.939C808.19 259.478 816.326 239.857 816.35 219.397C816.35 204.129 811.823 189.21 803.346 176.522C794.861 163.835 782.815 153.941 768.71 148.1C754.614 142.259 739.093 140.731 724.126 143.707C709.159 146.683 695.41 154.028 684.614 164.824C673.826 175.612 666.473 189.368 663.497 204.335C660.521 219.302 662.049 234.816 667.89 248.92C673.731 263.024 683.625 275.079 696.313 283.556Z" fill="url(#paint3_radial_56_141)" style="mix-blend-mode:multiply"/>
</g>
<defs>
<radialGradient id="paint0_radial_56_141" cx="0" cy="0" r="1" gradientUnits="userSpaceOnUse" gradientTransform="translate(750.201 220.958) rotate(20.63) scale(157.222 145.69)">
<stop offset="0.54" stop-color="#EC3C04"/>
<stop offset="0.7" stop-color="#F5977A" stop-opacity="0.56"/>
<stop offset="0.85" stop-color="white" stop-opacity="0"/>
</radialGradient>
<radialGradient id="paint1_radial_56_141" cx="0" cy="0" r="1" gradientUnits="userSpaceOnUse" gradientTransform="translate(756.575 230.489) rotate(145.98) scale(175.751 130.034)">
<stop offset="0.18" stop-color="#BF1414"/>
<stop offset="0.49" stop-color="#FF7272" stop-opacity="0.54"/>
<stop offset="0.82" stop-color="#FDFDFD" stop-opacity="0"/>
</radialGradient>
<radialGradient id="paint2_radial_56_141" cx="0" cy="0" r="1" gradientUnits="userSpaceOnUse" gradientTransform="translate(720.279 235.955) rotate(-41.09) scale(257.314 235.334)">
<stop offset="0.21" stop-color="#680707"/>
<stop offset="0.38" stop-color="#AB1010"/>
<stop offset="0.61" stop-color="#E41919"/>
<stop offset="0.94" stop-color="#FDFDFD" stop-opacity="0"/>
</radialGradient>
<radialGradient id="paint3_radial_56_141" cx="0" cy="0" r="1" gradientUnits="userSpaceOnUse" gradientTransform="translate(797.758 178.232) rotate(-58.2791) scale(103.708 94.3183)">
<stop stop-color="#471818" stop-opacity="0.8"/>
<stop offset="0.739583" stop-color="#F6BCBC" stop-opacity="0"/>
</radialGradient>
</defs>
</svg>
